<svg width="118" height="32" viewBox="0 0 118 32" fill="none" xmlns="http://www.w3.org/2000/svg">
<g clip-path="url(#clip0_91:18)">
<path d="M10.9077 0L4.66156 32H0V0L10.9077 0ZM12.8612 17.1764L17.8843 28.5321L19.4184 32H10.2866L10.8887 28.5321L12.8612 17.1764ZM31.9995 22.4736L32 32H27.729L31.9995 22.4736ZM32 0V10.5614L23.8798 28.5325L11.103 0H32Z" fill="#CD2633"/>
<path d="M39.4446 1.19189V14.0033H37.4857V1.19189H39.4446Z" fill="#362B73"/>
<path d="M41.9577 5.91593H43.8399V6.66514C44.3884 6.03207 45.1927 5.67944 46.0299 5.7049C47.5284 5.7049 48.1614 6.4541 48.4119 6.79943C48.7148 7.24168 48.9107 7.79905 48.9107 9.04706V14.0027H47.0316V9.5085C47.0316 7.45271 46.2632 7.39516 45.5523 7.39516C44.7072 7.39516 43.8429 7.51027 43.8429 10.1214V14.0017H41.9577V5.91593Z" fill="#362B73"/>
<path d="M53.0432 7.64845V14.0096H51.1611V7.64845H50.3739V5.91588H51.1611V2.95863H53.0432V5.91588H54.4841V7.64845H53.0432Z" fill="#362B73"/>
<path d="M62.8003 12.159C62.471 12.7542 62.003 13.2612 61.4362 13.6372C60.7839 14.0603 59.9216 14.2521 59.0553 14.2521C57.9789 14.2521 57.0954 13.9836 56.329 13.2152C55.5627 12.4468 55.1386 11.3331 55.1386 10.1224C55.1386 8.8744 55.5808 7.66375 56.426 6.79943C57.0974 6.12797 57.9809 5.7049 59.134 5.7049C60.4204 5.7049 61.2464 6.26226 61.727 6.76106C62.7579 7.83742 62.8589 9.33483 62.8589 10.18V10.4112H57.057C57.0954 10.9867 57.3458 11.64 57.7487 12.0439C58.191 12.4851 58.7281 12.5619 59.1896 12.5619C59.6524 12.5817 60.1075 12.4388 60.4759 12.158C60.7821 11.9164 61.0369 11.616 61.2251 11.2745L62.8003 12.159ZM60.9404 8.8744C60.8723 8.45659 60.6699 8.07236 60.3639 7.77987C59.6083 7.14353 58.4975 7.16819 57.7709 7.83742C57.484 8.12117 57.284 8.48092 57.1944 8.8744H60.9404Z" fill="#362B73"/>
<path d="M66.507 0V14.0027H64.6249V0H66.507Z" fill="#362B73"/>
<path d="M70.5792 0V14.0027H68.6962V0H70.5792Z" fill="#362B73"/>
<path d="M73.7093 1.36413C74.0331 1.356 74.346 1.48105 74.575 1.71007C74.804 1.93908 74.9291 2.25201 74.9209 2.57579C74.9209 3.24497 74.3785 3.78745 73.7093 3.78745C73.0401 3.78745 72.4976 3.24497 72.4976 2.57579C72.4892 2.25193 72.6142 1.93882 72.8432 1.70974C73.0723 1.48066 73.3854 1.35571 73.7093 1.36413ZM74.6503 5.91593V14.0027H72.7682V5.91593H74.6503ZM82.7553 5.91593H84.6384V13.3495C84.6384 15.2508 84.4264 16.6149 83.3127 17.5559C82.7937 17.979 81.9486 18.4203 80.6238 18.4203C79.6828 18.4203 78.7417 18.19 77.9733 17.4216C77.3776 16.8259 76.9171 15.8849 76.7818 14.9054H78.6104C78.6929 15.3731 78.8981 15.8104 79.2052 16.1726C79.4364 16.423 79.8968 16.73 80.6652 16.73C81.4528 16.73 81.9132 16.4271 82.1444 16.1918C82.7584 15.5971 82.7584 14.752 82.7584 14.1562V13.1011C81.894 14.1956 80.8399 14.2532 80.3007 14.2532C79.2627 14.2532 78.3984 13.9654 77.63 13.1586C76.901 12.3902 76.4183 11.2957 76.4183 9.95075C76.4183 8.47152 76.9757 7.45373 77.6088 6.82063C78.4166 5.99469 79.3758 5.70995 80.3562 5.70995C81.2812 5.69034 82.1647 6.09324 82.7563 6.80448L82.7553 5.91593ZM79.1638 7.93536C78.6842 8.37661 78.3378 9.12582 78.3378 9.99013C78.3378 10.7979 78.6458 11.5845 79.1456 12.0267C79.5459 12.3729 80.0573 12.5635 80.5865 12.5639C81.1815 12.5854 81.7564 12.3469 82.1616 11.9106C82.718 11.3159 82.8684 10.6242 82.8684 10.0093C82.8684 9.10663 82.5796 8.43416 82.1 7.97373C81.6386 7.51229 81.1196 7.39718 80.5854 7.39718C80.0585 7.37595 79.5455 7.56943 79.1638 7.93334V7.93536ZM94.0692 12.159C93.7396 12.754 93.2717 13.261 92.7051 13.6372C92.0518 14.0603 91.1905 14.2521 90.3232 14.2521C89.2478 14.2521 88.3643 13.9836 87.5969 13.2152C86.8295 12.4468 86.4055 11.3331 86.4055 10.1224C86.4055 8.8744 86.8467 7.66375 87.6918 6.79943C88.3643 6.12797 89.2478 5.7049 90.3999 5.7049C91.6873 5.7049 92.5132 6.26226 92.9928 6.76106C94.0308 7.83742 94.1268 9.33483 94.1268 10.18V10.4112H88.3259C88.3643 10.9867 88.6137 11.64 89.0176 12.0439C89.4588 12.4851 89.997 12.5619 90.4574 12.5619C90.9206 12.5817 91.376 12.4388 91.7448 12.158C92.0508 11.9162 92.3055 11.6158 92.494 11.2745L94.0692 12.159ZM92.2053 8.8744C92.1371 8.45684 91.9351 8.07273 91.6297 7.77986C90.8742 7.14353 89.7633 7.16819 89.0368 7.83742C88.7493 8.12079 88.5492 8.48069 88.4602 8.8744H92.2053ZM95.8766 5.91593H97.7587V6.66514C98.3069 6.03223 99.1108 5.6796 99.9478 5.7049C101.446 5.7049 102.08 6.45411 102.33 6.79943C102.638 7.24169 102.829 7.79905 102.829 9.04706V14.0027H100.945V9.5085C100.945 7.45272 100.177 7.39516 99.4661 7.39516C98.621 7.39516 97.7567 7.51027 97.7567 10.1214V14.0017H95.8766V5.91593Z" fill="#362B73"/>
<path d="M106.956 7.64845V14.0096H105.074V7.64845H104.287V5.91588H105.074V2.95863H106.956V5.91588H108.397V7.64845H106.956Z" fill="#362B73"/>
<path d="M48.8408 18.0571L51.2051 31.4927H49.2536L47.9789 23.9598L44.3439 32.0739L40.7454 23.9371L39.4342 31.4927H37.4857L40.109 18.0571L44.4562 27.7642L48.8408 18.0571ZM59.068 24.5183V23.6002H60.9042V31.4927H59.068V30.6682C58.4802 31.3612 57.6123 31.7535 56.7038 31.737C54.2677 31.737 52.8817 29.7127 52.8817 27.5396C52.8817 24.9724 54.643 23.4022 56.7235 23.4022C57.638 23.3803 58.5085 23.7946 59.068 24.5183ZM103.818 23.3943C104.38 23.3943 104.829 23.5066 105.28 23.8061C105.655 24.0514 105.964 24.3862 106.179 24.7803L104.813 25.6807C104.625 25.3803 104.27 25.0059 103.689 25.0059C103.481 24.997 103.279 25.0711 103.126 25.2118C103.019 25.3219 102.958 25.4696 102.958 25.6236C102.955 25.8106 103.056 25.9839 103.22 26.0738C103.3 26.1272 103.381 26.1616 103.563 26.2519L103.686 26.3134C103.732 26.3366 103.782 26.3625 103.838 26.392L104.776 26.8628C105.189 27.0687 105.582 27.2746 105.882 27.5938C106.273 27.9778 106.483 28.5084 106.463 29.0556C106.47 29.721 106.223 30.3642 105.773 30.8544C105.155 31.5292 104.387 31.7351 103.563 31.7351C103.056 31.7351 102.419 31.6602 101.857 31.2287C101.383 30.8575 101.027 30.355 100.836 29.7836L102.335 29.0724C102.434 29.3344 102.598 29.6713 102.767 29.821C102.984 30.0244 103.274 30.1326 103.572 30.1215C103.853 30.1215 104.153 30.0279 104.322 29.8595C104.483 29.6929 104.576 29.4724 104.584 29.2408C104.585 29.0166 104.498 28.8011 104.341 28.6409C104.111 28.4297 103.844 28.2642 103.553 28.1533L102.878 27.8351C102.522 27.6667 102.09 27.4608 101.794 27.1603C101.421 26.8212 101.215 26.3348 101.232 25.8305C101.229 25.2054 101.463 24.6025 101.888 24.144C102.243 23.7687 102.843 23.3943 103.818 23.3943ZM96.0079 23.3943C97.2629 23.3943 98.0687 23.9371 98.5376 24.4247C99.5493 25.4738 99.6429 26.9357 99.6429 27.7602V27.9848H93.9815C94.019 28.5473 94.2633 29.1847 94.6563 29.5777C95.0878 30.0092 95.6119 30.0841 96.0621 30.0841C96.5136 30.1038 96.9578 29.9644 97.3171 29.69C97.6157 29.4563 97.8643 29.1648 98.048 28.833L99.5847 29.69C99.2637 30.2712 98.8072 30.7662 98.2539 31.1332C97.6175 31.5459 96.7762 31.7331 95.931 31.7331C94.8809 31.7331 94.019 31.4701 93.2713 30.7214C92.5236 29.9727 92.1099 28.8842 92.1099 27.7041C92.1099 26.4855 92.5414 25.3054 93.3659 24.4622C94.021 23.8061 94.8829 23.3943 96.0079 23.3943ZM66.998 23.3914C67.7533 23.3831 68.4972 23.577 69.1524 23.9529L69.1534 26.0176C68.3101 25.1931 67.4856 25.0434 66.9241 25.0434C66.0622 25.0434 65.5184 25.399 65.1815 25.7329C64.8446 26.0669 64.5067 26.6697 64.5067 27.5504C64.5067 28.4685 64.8623 29.0872 65.2189 29.4428C65.6715 29.863 66.2692 30.0914 66.8867 30.0801C67.7505 30.0762 68.5728 29.709 69.1524 29.0684V31.1105C68.7032 31.3913 67.9703 31.7292 66.7537 31.7292C65.4425 31.7292 64.5057 31.3538 63.7561 30.5668C63.1936 29.9865 62.6311 29.0497 62.6311 27.6066C62.6311 26.1289 63.2497 25.133 63.8309 24.5528C64.4496 23.9342 65.4425 23.3914 66.998 23.3914ZM72.5638 17.8286V24.275C73.1142 23.6963 73.8832 23.3766 74.6817 23.3943C76.1248 23.3943 76.7799 24.144 77.0055 24.4622C77.4921 25.1744 77.5109 26.0925 77.5109 26.655V31.4927H75.6747V26.8234C75.6747 26.3545 75.6747 25.8492 75.319 25.4551C75.0475 25.1803 74.6738 25.0311 74.2877 25.0434C73.7581 25.0295 73.255 25.2743 72.9391 25.6994C72.6761 26.0738 72.5638 26.6737 72.5638 27.6854V31.4927H70.7275V17.8286H72.5638ZM81.4837 23.6002V31.4927H79.6475V23.6002H81.4837ZM87.5696 23.3943C89.0315 23.3943 89.6491 24.1253 89.8934 24.4622C90.189 24.8936 90.3801 25.4364 90.3801 26.655V31.4927H88.5478V27.1042C88.5478 25.1431 87.8304 25.0467 87.1499 25.0435L87.1046 25.0434C86.2801 25.0434 85.4369 25.1557 85.4369 27.7031V31.4927H83.5967V23.6002H85.433V24.3311C85.9681 23.7135 86.7528 23.3695 87.5696 23.3943ZM56.9511 25.0434C55.6202 25.0434 54.7622 26.1673 54.7622 27.5731H54.7583C54.7583 28.9404 55.6202 30.0841 56.9511 30.0841C58.1125 30.0841 59.1803 29.2408 59.1803 27.5918C59.1803 25.8679 58.1125 25.0434 56.9511 25.0434ZM94.6751 25.4738C94.3955 25.7508 94.2007 26.1018 94.1136 26.4855H97.7673C97.7003 26.0781 97.5029 25.7034 97.2048 25.4177C96.4672 24.7982 95.3844 24.8222 94.6751 25.4738ZM80.5656 19.1594C81.2185 19.1594 81.7477 19.6887 81.7477 20.3415C81.7477 20.9944 81.2185 21.5236 80.5656 21.5236C79.9128 21.5236 79.3835 20.9944 79.3835 20.3415C79.375 20.0255 79.4968 19.7199 79.7204 19.4963C79.9439 19.2727 80.2496 19.1509 80.5656 19.1594ZM114.286 7.31429C116.376 7.31429 117.943 5.74694 117.943 3.65714C117.943 1.56735 116.376 0 114.286 0C112.196 0 110.629 1.56735 110.629 3.65714C110.629 5.74694 112.196 7.31429 114.286 7.31429ZM114.286 6.7172C112.537 6.7172 111.226 5.40575 111.226 3.65714C111.226 1.90854 112.537 0.597085 114.286 0.597085C116.034 0.597085 117.346 1.90854 117.346 3.65714C117.346 5.40575 116.034 6.7172 114.286 6.7172ZM113.742 5.65098V3.96635L115.043 5.65098H115.768L114.392 3.91304C115 3.84906 115.427 3.41191 115.427 2.80417C115.427 1.67397 114.211 1.66331 113.891 1.66331H113.166V5.65098H113.742ZM114.028 3.45415L113.742 3.45456V2.17509H113.955C114.318 2.17509 114.851 2.19642 114.851 2.82549C114.851 3.37383 114.377 3.4483 114.028 3.45415Z" fill="#362B73"/>
</g>
<defs>
<clipPath id="clip0_91:18">
<rect width="117.943" height="32" fill="white"/>
</clipPath>
</defs>
</svg>
